<mxfile host="Electron" agent="Mozilla/5.0 (Windows NT 10.0; Win64; x64) AppleWebKit/537.36 (KHTML, like Gecko) draw.io/24.7.17 Chrome/128.0.6613.36 Electron/32.0.1 Safari/537.36" version="24.7.17">
  <diagram name="Flowchart" id="0">
    <mxGraphModel dx="2049" dy="2363" grid="1" gridSize="10" guides="1" tooltips="1" connect="1" arrows="1" fold="1" page="1" pageScale="1" pageWidth="827" pageHeight="1169" math="0" shadow="0">
      <root>
        <mxCell id="0" />
        <mxCell id="1" parent="0" />
        <mxCell id="brRB35gtM_PhmuI5axkR-41" style="edgeStyle=orthogonalEdgeStyle;rounded=0;orthogonalLoop=1;jettySize=auto;html=1;exitX=0.5;exitY=1;exitDx=0;exitDy=0;entryX=0.5;entryY=0;entryDx=0;entryDy=0;" edge="1" parent="1" source="2" target="brRB35gtM_PhmuI5axkR-40">
          <mxGeometry relative="1" as="geometry" />
        </mxCell>
        <mxCell id="2" value="Start" style="ellipse;whiteSpace=wrap;html=1;" parent="1" vertex="1">
          <mxGeometry x="300" y="-40" width="170" height="90" as="geometry" />
        </mxCell>
        <mxCell id="brRB35gtM_PhmuI5axkR-47" style="edgeStyle=orthogonalEdgeStyle;rounded=0;orthogonalLoop=1;jettySize=auto;html=1;exitX=0.5;exitY=1;exitDx=0;exitDy=0;entryX=0.5;entryY=0;entryDx=0;entryDy=0;" edge="1" parent="1" source="5" target="brRB35gtM_PhmuI5axkR-46">
          <mxGeometry relative="1" as="geometry" />
        </mxCell>
        <mxCell id="brRB35gtM_PhmuI5axkR-52" style="edgeStyle=orthogonalEdgeStyle;rounded=0;orthogonalLoop=1;jettySize=auto;html=1;exitX=1;exitY=0.25;exitDx=0;exitDy=0;entryX=0;entryY=0.5;entryDx=0;entryDy=0;" edge="1" parent="1" source="5" target="brRB35gtM_PhmuI5axkR-30">
          <mxGeometry relative="1" as="geometry">
            <Array as="points">
              <mxPoint x="200" y="266" />
              <mxPoint x="200" y="220" />
              <mxPoint x="850" y="220" />
              <mxPoint x="850" y="125" />
            </Array>
          </mxGeometry>
        </mxCell>
        <mxCell id="5" value="Input Client Age" style="rounded=1;whiteSpace=wrap;html=1;shape=parallelogram;perimeter=parallelogramPerimeter;fixedSize=1;" parent="1" vertex="1">
          <mxGeometry x="20" y="250" width="140" height="60" as="geometry" />
        </mxCell>
        <mxCell id="brRB35gtM_PhmuI5axkR-49" style="edgeStyle=orthogonalEdgeStyle;rounded=0;orthogonalLoop=1;jettySize=auto;html=1;exitX=0.5;exitY=1;exitDx=0;exitDy=0;entryX=0.5;entryY=0;entryDx=0;entryDy=0;" edge="1" parent="1" source="6" target="brRB35gtM_PhmuI5axkR-48">
          <mxGeometry relative="1" as="geometry" />
        </mxCell>
        <mxCell id="brRB35gtM_PhmuI5axkR-53" style="edgeStyle=orthogonalEdgeStyle;rounded=0;orthogonalLoop=1;jettySize=auto;html=1;exitX=1;exitY=0.25;exitDx=0;exitDy=0;entryX=0;entryY=0.5;entryDx=0;entryDy=0;" edge="1" parent="1" source="6" target="brRB35gtM_PhmuI5axkR-31">
          <mxGeometry relative="1" as="geometry">
            <Array as="points">
              <mxPoint x="410" y="266" />
              <mxPoint x="410" y="240" />
              <mxPoint x="870" y="240" />
              <mxPoint x="870" y="155" />
            </Array>
          </mxGeometry>
        </mxCell>
        <mxCell id="6" value="Select Flight Class" style="rounded=1;whiteSpace=wrap;html=1;shape=parallelogram;perimeter=parallelogramPerimeter;fixedSize=1;" parent="1" vertex="1">
          <mxGeometry x="230" y="250" width="140" height="60" as="geometry" />
        </mxCell>
        <mxCell id="brRB35gtM_PhmuI5axkR-43" style="edgeStyle=orthogonalEdgeStyle;rounded=0;orthogonalLoop=1;jettySize=auto;html=1;exitX=0.5;exitY=1;exitDx=0;exitDy=0;entryX=0.5;entryY=0;entryDx=0;entryDy=0;" edge="1" parent="1" source="7" target="8">
          <mxGeometry relative="1" as="geometry" />
        </mxCell>
        <mxCell id="brRB35gtM_PhmuI5axkR-51" style="edgeStyle=orthogonalEdgeStyle;rounded=0;orthogonalLoop=1;jettySize=auto;html=1;exitX=1;exitY=0.5;exitDx=0;exitDy=0;entryX=0;entryY=0.5;entryDx=0;entryDy=0;" edge="1" parent="1" source="7" target="brRB35gtM_PhmuI5axkR-32">
          <mxGeometry relative="1" as="geometry">
            <Array as="points">
              <mxPoint x="890" y="280" />
              <mxPoint x="890" y="185" />
            </Array>
          </mxGeometry>
        </mxCell>
        <mxCell id="7" value="Select Destination" style="rounded=1;whiteSpace=wrap;html=1;shape=parallelogram;perimeter=parallelogramPerimeter;fixedSize=1;" parent="1" vertex="1">
          <mxGeometry x="610" y="250" width="140" height="60" as="geometry" />
        </mxCell>
        <mxCell id="brRB35gtM_PhmuI5axkR-64" style="edgeStyle=orthogonalEdgeStyle;rounded=0;orthogonalLoop=1;jettySize=auto;html=1;exitX=1;exitY=0.25;exitDx=0;exitDy=0;entryX=0;entryY=0.5;entryDx=0;entryDy=0;" edge="1" parent="1" source="8" target="brRB35gtM_PhmuI5axkR-57">
          <mxGeometry relative="1" as="geometry">
            <Array as="points">
              <mxPoint x="180" y="555" />
              <mxPoint x="180" y="445" />
            </Array>
          </mxGeometry>
        </mxCell>
        <mxCell id="8" value="Calculate Base Cost" style="rounded=0;whiteSpace=wrap;html=1;" parent="1" vertex="1">
          <mxGeometry x="20" y="540" width="140" height="60" as="geometry" />
        </mxCell>
        <mxCell id="9" value="Apply Class Multiplier" style="rounded=0;whiteSpace=wrap;html=1;" parent="1" vertex="1">
          <mxGeometry x="230" y="540" width="140" height="60" as="geometry" />
        </mxCell>
        <mxCell id="10" value="Apply Age Discount" style="rounded=0;whiteSpace=wrap;html=1;" parent="1" vertex="1">
          <mxGeometry x="430" y="540" width="140" height="60" as="geometry" />
        </mxCell>
        <mxCell id="brRB35gtM_PhmuI5axkR-44" style="edgeStyle=orthogonalEdgeStyle;rounded=0;orthogonalLoop=1;jettySize=auto;html=1;exitX=0.5;exitY=1;exitDx=0;exitDy=0;entryX=0.5;entryY=0;entryDx=0;entryDy=0;" edge="1" parent="1" source="11" target="12">
          <mxGeometry relative="1" as="geometry" />
        </mxCell>
        <mxCell id="brRB35gtM_PhmuI5axkR-63" style="edgeStyle=orthogonalEdgeStyle;rounded=0;orthogonalLoop=1;jettySize=auto;html=1;exitX=1;exitY=0.5;exitDx=0;exitDy=0;entryX=0;entryY=0.5;entryDx=0;entryDy=0;" edge="1" parent="1" source="11" target="brRB35gtM_PhmuI5axkR-58">
          <mxGeometry relative="1" as="geometry">
            <Array as="points">
              <mxPoint x="820" y="570" />
              <mxPoint x="820" y="475" />
            </Array>
          </mxGeometry>
        </mxCell>
        <mxCell id="11" value="Get Seat Availability" style="rounded=1;whiteSpace=wrap;html=1;shape=parallelogram;perimeter=parallelogramPerimeter;fixedSize=1;" parent="1" vertex="1">
          <mxGeometry x="610" y="540" width="140" height="60" as="geometry" />
        </mxCell>
        <mxCell id="brRB35gtM_PhmuI5axkR-66" style="edgeStyle=orthogonalEdgeStyle;rounded=0;orthogonalLoop=1;jettySize=auto;html=1;exitX=1;exitY=0.5;exitDx=0;exitDy=0;entryX=0;entryY=0.5;entryDx=0;entryDy=0;" edge="1" parent="1" source="12" target="brRB35gtM_PhmuI5axkR-65">
          <mxGeometry relative="1" as="geometry">
            <Array as="points">
              <mxPoint x="840" y="700" />
              <mxPoint x="840" y="565" />
            </Array>
          </mxGeometry>
        </mxCell>
        <mxCell id="12" value="Calculate Final Cost" style="rounded=0;whiteSpace=wrap;html=1;" parent="1" vertex="1">
          <mxGeometry x="315" y="670" width="140" height="60" as="geometry" />
        </mxCell>
        <mxCell id="13" value="Generate Email Message" style="rounded=0;whiteSpace=wrap;html=1;" parent="1" vertex="1">
          <mxGeometry x="305" y="760" width="160" height="60" as="geometry" />
        </mxCell>
        <mxCell id="14" value="Display Email" style="rounded=1;whiteSpace=wrap;html=1;shape=parallelogram;perimeter=parallelogramPerimeter;fixedSize=1;" parent="1" vertex="1">
          <mxGeometry x="315" y="860" width="140" height="60" as="geometry" />
        </mxCell>
        <mxCell id="15" value="End" style="ellipse;whiteSpace=wrap;html=1;" parent="1" vertex="1">
          <mxGeometry x="345" y="960" width="80" height="40" as="geometry" />
        </mxCell>
        <mxCell id="19" parent="1" source="5" target="6" edge="1">
          <mxGeometry relative="1" as="geometry" />
        </mxCell>
        <mxCell id="20" parent="1" source="4" target="7" edge="1">
          <mxGeometry relative="1" as="geometry" />
        </mxCell>
        <mxCell id="22" parent="1" source="8" target="9" edge="1">
          <mxGeometry relative="1" as="geometry" />
        </mxCell>
        <mxCell id="23" parent="1" source="9" target="10" edge="1">
          <mxGeometry relative="1" as="geometry" />
        </mxCell>
        <mxCell id="24" parent="1" source="10" target="11" edge="1">
          <mxGeometry relative="1" as="geometry" />
        </mxCell>
        <mxCell id="26" parent="1" source="12" target="13" edge="1">
          <mxGeometry relative="1" as="geometry" />
        </mxCell>
        <mxCell id="27" parent="1" source="13" target="14" edge="1">
          <mxGeometry relative="1" as="geometry" />
        </mxCell>
        <mxCell id="28" parent="1" source="14" target="15" edge="1">
          <mxGeometry relative="1" as="geometry" />
        </mxCell>
        <mxCell id="brRB35gtM_PhmuI5axkR-69" style="edgeStyle=orthogonalEdgeStyle;rounded=0;orthogonalLoop=1;jettySize=auto;html=1;entryX=1;entryY=0.75;entryDx=0;entryDy=0;" edge="1" parent="1" source="brRB35gtM_PhmuI5axkR-28" target="13">
          <mxGeometry relative="1" as="geometry">
            <Array as="points">
              <mxPoint x="990" y="320" />
              <mxPoint x="1120" y="320" />
              <mxPoint x="1120" y="805" />
            </Array>
          </mxGeometry>
        </mxCell>
        <mxCell id="brRB35gtM_PhmuI5axkR-28" value="Basic Info List" style="swimlane;fontStyle=0;childLayout=stackLayout;horizontal=1;startSize=30;horizontalStack=0;resizeParent=1;resizeParentMax=0;resizeLast=0;collapsible=1;marginBottom=0;whiteSpace=wrap;html=1;" vertex="1" parent="1">
          <mxGeometry x="920" y="50" width="140" height="150" as="geometry" />
        </mxCell>
        <mxCell id="brRB35gtM_PhmuI5axkR-29" value="Name" style="text;strokeColor=none;fillColor=none;align=left;verticalAlign=middle;spacingLeft=4;spacingRight=4;overflow=hidden;points=[[0,0.5],[1,0.5]];portConstraint=eastwest;rotatable=0;whiteSpace=wrap;html=1;" vertex="1" parent="brRB35gtM_PhmuI5axkR-28">
          <mxGeometry y="30" width="140" height="30" as="geometry" />
        </mxCell>
        <mxCell id="brRB35gtM_PhmuI5axkR-30" value="Age" style="text;strokeColor=none;fillColor=none;align=left;verticalAlign=middle;spacingLeft=4;spacingRight=4;overflow=hidden;points=[[0,0.5],[1,0.5]];portConstraint=eastwest;rotatable=0;whiteSpace=wrap;html=1;" vertex="1" parent="brRB35gtM_PhmuI5axkR-28">
          <mxGeometry y="60" width="140" height="30" as="geometry" />
        </mxCell>
        <mxCell id="brRB35gtM_PhmuI5axkR-31" value="Class" style="text;strokeColor=none;fillColor=none;align=left;verticalAlign=middle;spacingLeft=4;spacingRight=4;overflow=hidden;points=[[0,0.5],[1,0.5]];portConstraint=eastwest;rotatable=0;whiteSpace=wrap;html=1;" vertex="1" parent="brRB35gtM_PhmuI5axkR-28">
          <mxGeometry y="90" width="140" height="30" as="geometry" />
        </mxCell>
        <mxCell id="brRB35gtM_PhmuI5axkR-32" value="Destination" style="text;strokeColor=none;fillColor=none;align=left;verticalAlign=middle;spacingLeft=4;spacingRight=4;overflow=hidden;points=[[0,0.5],[1,0.5]];portConstraint=eastwest;rotatable=0;whiteSpace=wrap;html=1;" vertex="1" parent="brRB35gtM_PhmuI5axkR-28">
          <mxGeometry y="120" width="140" height="30" as="geometry" />
        </mxCell>
        <mxCell id="brRB35gtM_PhmuI5axkR-39" value="" edge="1" parent="1" source="6" target="4">
          <mxGeometry relative="1" as="geometry">
            <mxPoint x="300" y="281" as="sourcePoint" />
            <mxPoint x="630" y="289" as="targetPoint" />
          </mxGeometry>
        </mxCell>
        <mxCell id="brRB35gtM_PhmuI5axkR-54" style="edgeStyle=orthogonalEdgeStyle;rounded=0;orthogonalLoop=1;jettySize=auto;html=1;exitX=1;exitY=0.25;exitDx=0;exitDy=0;entryX=0;entryY=0.5;entryDx=0;entryDy=0;" edge="1" parent="1" source="4" target="brRB35gtM_PhmuI5axkR-29">
          <mxGeometry relative="1" as="geometry">
            <Array as="points">
              <mxPoint x="590" y="266" />
              <mxPoint x="590" y="190" />
              <mxPoint x="830" y="190" />
              <mxPoint x="830" y="95" />
            </Array>
          </mxGeometry>
        </mxCell>
        <mxCell id="4" value="Input Client Name" style="rounded=1;whiteSpace=wrap;html=1;shape=parallelogram;perimeter=parallelogramPerimeter;fixedSize=1;" parent="1" vertex="1">
          <mxGeometry x="430" y="250" width="140" height="60" as="geometry" />
        </mxCell>
        <mxCell id="brRB35gtM_PhmuI5axkR-40" value="Get Client Info" style="rounded=0;whiteSpace=wrap;html=1;" vertex="1" parent="1">
          <mxGeometry x="20" y="95" width="730" height="60" as="geometry" />
        </mxCell>
        <mxCell id="brRB35gtM_PhmuI5axkR-42" style="edgeStyle=orthogonalEdgeStyle;rounded=0;orthogonalLoop=1;jettySize=auto;html=1;exitX=0.5;exitY=1;exitDx=0;exitDy=0;entryX=0.5;entryY=0.167;entryDx=0;entryDy=0;entryPerimeter=0;" edge="1" parent="1" source="brRB35gtM_PhmuI5axkR-40" target="5">
          <mxGeometry relative="1" as="geometry" />
        </mxCell>
        <mxCell id="brRB35gtM_PhmuI5axkR-62" style="edgeStyle=orthogonalEdgeStyle;rounded=0;orthogonalLoop=1;jettySize=auto;html=1;exitX=1;exitY=0.5;exitDx=0;exitDy=0;entryX=0;entryY=0.5;entryDx=0;entryDy=0;" edge="1" parent="1" source="brRB35gtM_PhmuI5axkR-46" target="brRB35gtM_PhmuI5axkR-59">
          <mxGeometry relative="1" as="geometry">
            <Array as="points">
              <mxPoint x="200" y="370" />
              <mxPoint x="200" y="505" />
            </Array>
          </mxGeometry>
        </mxCell>
        <mxCell id="brRB35gtM_PhmuI5axkR-46" value="Determine Age Discount" style="rounded=0;whiteSpace=wrap;html=1;" vertex="1" parent="1">
          <mxGeometry x="20" y="340" width="140" height="60" as="geometry" />
        </mxCell>
        <mxCell id="brRB35gtM_PhmuI5axkR-61" style="edgeStyle=orthogonalEdgeStyle;rounded=0;orthogonalLoop=1;jettySize=auto;html=1;exitX=1;exitY=0.5;exitDx=0;exitDy=0;entryX=0;entryY=0.5;entryDx=0;entryDy=0;" edge="1" parent="1" source="brRB35gtM_PhmuI5axkR-48" target="brRB35gtM_PhmuI5axkR-60">
          <mxGeometry relative="1" as="geometry">
            <Array as="points">
              <mxPoint x="400" y="370" />
              <mxPoint x="400" y="520" />
              <mxPoint x="760" y="520" />
              <mxPoint x="760" y="535" />
            </Array>
          </mxGeometry>
        </mxCell>
        <mxCell id="brRB35gtM_PhmuI5axkR-48" value="Determine Class Multiplication Value" style="rounded=0;whiteSpace=wrap;html=1;" vertex="1" parent="1">
          <mxGeometry x="230" y="340" width="140" height="60" as="geometry" />
        </mxCell>
        <mxCell id="brRB35gtM_PhmuI5axkR-68" style="edgeStyle=orthogonalEdgeStyle;rounded=0;orthogonalLoop=1;jettySize=auto;html=1;entryX=1;entryY=0.5;entryDx=0;entryDy=0;" edge="1" parent="1" source="brRB35gtM_PhmuI5axkR-56" target="13">
          <mxGeometry relative="1" as="geometry">
            <Array as="points">
              <mxPoint x="990" y="790" />
            </Array>
          </mxGeometry>
        </mxCell>
        <mxCell id="brRB35gtM_PhmuI5axkR-56" value="Class Info List" style="swimlane;fontStyle=0;childLayout=stackLayout;horizontal=1;startSize=30;horizontalStack=0;resizeParent=1;resizeParentMax=0;resizeLast=0;collapsible=1;marginBottom=0;whiteSpace=wrap;html=1;" vertex="1" parent="1">
          <mxGeometry x="920" y="400" width="140" height="180" as="geometry" />
        </mxCell>
        <mxCell id="brRB35gtM_PhmuI5axkR-57" value="Initial Cost" style="text;strokeColor=none;fillColor=none;align=left;verticalAlign=middle;spacingLeft=4;spacingRight=4;overflow=hidden;points=[[0,0.5],[1,0.5]];portConstraint=eastwest;rotatable=0;whiteSpace=wrap;html=1;" vertex="1" parent="brRB35gtM_PhmuI5axkR-56">
          <mxGeometry y="30" width="140" height="30" as="geometry" />
        </mxCell>
        <mxCell id="brRB35gtM_PhmuI5axkR-58" value="Remaining Seats" style="text;strokeColor=none;fillColor=none;align=left;verticalAlign=middle;spacingLeft=4;spacingRight=4;overflow=hidden;points=[[0,0.5],[1,0.5]];portConstraint=eastwest;rotatable=0;whiteSpace=wrap;html=1;" vertex="1" parent="brRB35gtM_PhmuI5axkR-56">
          <mxGeometry y="60" width="140" height="30" as="geometry" />
        </mxCell>
        <mxCell id="brRB35gtM_PhmuI5axkR-59" value="Age Discount" style="text;strokeColor=none;fillColor=none;align=left;verticalAlign=middle;spacingLeft=4;spacingRight=4;overflow=hidden;points=[[0,0.5],[1,0.5]];portConstraint=eastwest;rotatable=0;whiteSpace=wrap;html=1;" vertex="1" parent="brRB35gtM_PhmuI5axkR-56">
          <mxGeometry y="90" width="140" height="30" as="geometry" />
        </mxCell>
        <mxCell id="brRB35gtM_PhmuI5axkR-60" value="Class Multiplier" style="text;strokeColor=none;fillColor=none;align=left;verticalAlign=middle;spacingLeft=4;spacingRight=4;overflow=hidden;points=[[0,0.5],[1,0.5]];portConstraint=eastwest;rotatable=0;whiteSpace=wrap;html=1;" vertex="1" parent="brRB35gtM_PhmuI5axkR-56">
          <mxGeometry y="120" width="140" height="30" as="geometry" />
        </mxCell>
        <mxCell id="brRB35gtM_PhmuI5axkR-65" value="Final Cost" style="text;strokeColor=none;fillColor=none;align=left;verticalAlign=middle;spacingLeft=4;spacingRight=4;overflow=hidden;points=[[0,0.5],[1,0.5]];portConstraint=eastwest;rotatable=0;whiteSpace=wrap;html=1;" vertex="1" parent="brRB35gtM_PhmuI5axkR-56">
          <mxGeometry y="150" width="140" height="30" as="geometry" />
        </mxCell>
      </root>
    </mxGraphModel>
  </diagram>
</mxfile>
